<svg width="101" height="101" viewBox="0 0 101 101" fill="none" xmlns="http://www.w3.org/2000/svg">
<path d="M29.2065 72.9866C28.9059 73.3248 28.5301 73.2684 28.0792 72.8175C27.5908 72.4042 27.5156 72.0473 27.8538 71.7467C28.1544 71.4085 28.5301 71.4648 28.981 71.9157C29.4319 72.3291 29.5071 72.686 29.2065 72.9866ZM26.8393 69.5486C27.1775 69.9994 27.1775 70.3564 26.8393 70.6194C26.5387 70.8449 26.2193 70.7134 25.8811 70.2249C25.543 69.7364 25.543 69.3983 25.8811 69.2104C26.2193 68.9474 26.5387 69.0601 26.8393 69.5486ZM23.4012 66.1669C23.2134 66.4299 22.9691 66.4675 22.6685 66.2796C22.2928 66.0917 22.1613 65.8663 22.274 65.6032C22.3867 65.4154 22.631 65.3778 23.0067 65.4905C23.3824 65.6784 23.514 65.9038 23.4012 66.1669ZM25.1484 68.0832C24.923 68.3462 24.6224 68.2898 24.2467 67.9141C23.9085 67.5007 23.8709 67.2002 24.1339 67.0123C24.3594 66.7868 24.66 66.8432 25.0357 67.1814C25.3739 67.5947 25.4115 67.8953 25.1484 68.0832ZM32.4191 74.3957C32.2688 74.8465 31.9118 74.9593 31.3482 74.7338C30.7095 74.5835 30.4652 74.3017 30.6155 73.8884C30.7658 73.4751 31.1228 73.3436 31.6864 73.4939C32.2876 73.6817 32.5318 73.9823 32.4191 74.3957ZM35.9699 74.6775C35.9699 75.0908 35.6693 75.2974 35.0681 75.2974C34.4293 75.3726 34.1099 75.1659 34.1099 74.6775C34.1099 74.2641 34.4105 74.0575 35.0117 74.0575C35.6505 73.9823 35.9699 74.189 35.9699 74.6775ZM39.2388 74.1138C39.314 74.4896 39.051 74.7526 38.4498 74.9029C37.8486 75.0532 37.5104 74.9029 37.4353 74.452C37.3601 74.0011 37.6231 73.7193 38.2243 73.6066C38.8255 73.5314 39.1637 73.7005 39.2388 74.1138ZM93.5714 20.2321V74.3393C93.5714 78.8106 91.9839 82.6338 88.8089 85.8089C85.6338 88.9839 81.8106 90.5714 77.3393 90.5714H64.7143C64.1131 90.5714 63.6528 90.5526 63.3334 90.5151C63.014 90.4775 62.6477 90.3836 62.2344 90.2333C61.8211 90.083 61.5205 89.8106 61.3326 89.416C61.1447 89.0215 61.0508 88.5048 61.0508 87.8661V74.3957C61.0508 70.7509 60.0739 68.0832 58.12 66.3923C60.2617 66.1669 62.1874 65.8287 63.897 65.3778C65.6067 64.9269 67.3727 64.1942 69.195 63.1797C71.0174 62.1652 72.5392 60.9158 73.7603 59.4316C74.9815 57.9475 75.9772 55.9748 76.7475 53.5137C77.5178 51.0526 77.9029 48.2251 77.9029 45.0313C77.9029 40.4848 76.4187 36.6146 73.4503 33.4208C74.8406 30.0015 74.6903 26.1689 72.9994 21.923C71.9474 21.5848 70.4256 21.7915 68.4342 22.543C66.4427 23.2945 64.7143 24.1211 63.2489 25.0229L61.1071 26.3756C57.6127 25.3986 54.0056 24.9102 50.2857 24.9102C46.5659 24.9102 42.9587 25.3986 39.4643 26.3756C38.8631 25.9622 38.0646 25.455 37.0689 24.8538C36.0732 24.2526 34.5045 23.5293 32.3627 22.6839C30.221 21.8385 28.6053 21.5848 27.5156 21.923C25.8624 26.1689 25.7308 30.0015 27.1211 33.4208C24.1527 36.6146 22.6685 40.4848 22.6685 45.0313C22.6685 48.2251 23.0537 51.0432 23.8239 53.4855C24.5942 55.9278 25.5805 57.9005 26.7829 59.4035C27.9853 60.9064 29.4977 62.1652 31.32 63.1797C33.1424 64.1942 34.9084 64.9269 36.618 65.3778C38.3277 65.8287 40.2534 66.1669 42.3951 66.3923C40.8921 67.745 39.9715 69.6801 39.6334 72.1976C38.8443 72.5733 37.9989 72.8551 37.0971 73.043C36.1953 73.2308 35.1244 73.3248 33.8845 73.3248C32.6445 73.3248 31.414 72.9209 30.1928 72.113C28.9716 71.3052 27.9289 70.131 27.0647 68.5904C26.3508 67.388 25.4396 66.4111 24.3312 65.6596C23.2228 64.9081 22.2928 64.4572 21.5413 64.3069L20.4141 64.1378C19.625 64.1378 19.0802 64.2224 18.7796 64.3915C18.479 64.5606 18.385 64.7766 18.4978 65.0396C18.6105 65.3026 18.7796 65.5657 19.005 65.8287C19.2305 66.0917 19.4747 66.3172 19.7377 66.505L20.1323 66.7868C20.9589 67.1626 21.7761 67.8765 22.584 68.9286C23.3918 69.9807 23.9836 70.9388 24.3594 71.803L24.923 73.0993C25.4115 74.5272 26.2381 75.6826 27.4029 76.5656C28.5677 77.4486 29.8265 78.0122 31.1791 78.2564C32.5318 78.5007 33.8375 78.6322 35.0963 78.651C36.355 78.6697 37.3977 78.604 38.2243 78.4537L39.5207 78.2282C39.5207 79.6561 39.53 81.5912 39.5488 84.0335C39.5676 86.4758 39.577 87.7534 39.577 87.8661C39.577 88.6927 39.3704 89.3221 38.957 89.7542C38.5437 90.1863 38.1304 90.4305 37.7171 90.4869C37.3038 90.5433 36.6838 90.5714 35.8571 90.5714H23.2321C18.7608 90.5714 14.9376 88.9839 11.7626 85.8089C8.58752 82.6338 7 78.8106 7 74.3393V20.2321C7 15.7608 8.58752 11.9376 11.7626 8.76256C14.9376 5.58752 18.7608 4 23.2321 4H77.3393C81.8106 4 85.6338 5.58752 88.8089 8.76256C91.9839 11.9376 93.5714 15.7608 93.5714 20.2321Z" fill="white"/>
</svg>
