<svg width="428" height="319" viewBox="0 0 428 319" fill="none" xmlns="http://www.w3.org/2000/svg">
<circle cx="214" cy="27" r="22" stroke="white" stroke-width="10"/>
<mask id="path-2-inside-1_3_33" fill="white">
<rect x="84" y="124" width="260" height="195" rx="17"/>
</mask>
<rect x="84" y="124" width="260" height="195" rx="17" fill="white" stroke="white" stroke-width="36" mask="url(#path-2-inside-1_3_33)"/>
<circle cx="159" cy="221" r="22" fill="#202023" stroke="#202023" stroke-width="18"/>
<circle cx="269" cy="221" r="22" fill="#202023" stroke="#202023" stroke-width="18"/>
<line x1="214" y1="54" x2="214" y2="123" stroke="white" stroke-width="18" stroke-linecap="round"/>
<mask id="path-6-inside-2_3_33" fill="white">
<path d="M352 167H413C421.284 167 428 173.716 428 182V259C428 267.284 421.284 274 413 274H352V167Z"/>
</mask>
<path d="M352 167H413C421.284 167 428 173.716 428 182V259C428 267.284 421.284 274 413 274H352V167Z" fill="white" stroke="white" stroke-width="36" mask="url(#path-6-inside-2_3_33)"/>
<mask id="path-7-inside-3_3_33" fill="white">
<path d="M0 183C0 174.716 6.71573 168 15 168H76V275H15C6.71573 275 0 268.284 0 260V183Z"/>
</mask>
<path d="M0 183C0 174.716 6.71573 168 15 168H76V275H15C6.71573 275 0 268.284 0 260V183Z" fill="white" stroke="white" stroke-width="36" mask="url(#path-7-inside-3_3_33)"/>
</svg>
