<?xml version="1.0" standalone="no"?>
<!DOCTYPE svg PUBLIC "-//W3C//DTD SVG 20010904//EN"
 "http://www.w3.org/TR/2001/REC-SVG-20010904/DTD/svg10.dtd">
<svg version="1.0" xmlns="http://www.w3.org/2000/svg"
 width="700.000000pt" height="700.000000pt" viewBox="0 0 700.000000 700.000000"
 preserveAspectRatio="xMidYMid meet">
<metadata>
Created by potrace 1.14, written by Peter Selinger 2001-2017
</metadata>
<g transform="translate(0.000000,700.000000) scale(0.100000,-0.100000)"
fill="#000000" stroke="none">
<path d="M3278 6995 c-1 -1 -41 -5 -88 -9 -47 -4 -101 -9 -120 -12 -139 -19
-252 -40 -360 -66 -69 -16 -135 -31 -146 -34 -32 -6 -260 -81 -297 -98 -18 -7
-59 -24 -92 -37 -90 -34 -294 -133 -403 -196 -88 -50 -303 -188 -341 -219 -9
-7 -52 -41 -96 -75 -426 -331 -813 -825 -1020 -1299 -25 -58 -50 -114 -55
-125 -45 -93 -150 -427 -176 -560 -2 -11 -10 -54 -19 -95 -29 -147 -36 -198
-52 -370 -15 -163 -8 -591 12 -711 2 -13 6 -46 9 -74 12 -105 35 -222 72 -370
26 -104 82 -289 94 -315 5 -8 25 -60 45 -115 62 -165 249 -531 312 -610 4 -6
34 -49 65 -95 171 -256 432 -534 708 -755 92 -74 370 -265 386 -265 4 0 15 -6
23 -14 27 -22 239 -131 361 -183 294 -128 612 -218 909 -259 25 -3 57 -8 71
-10 163 -25 682 -25 842 1 13 2 46 7 73 10 71 10 87 13 115 18 14 3 43 8 65
12 115 21 314 74 455 122 557 189 1090 542 1480 982 36 41 70 79 75 85 62 67
240 317 320 450 179 298 346 717 411 1031 16 75 54 300 60 350 4 33 9 76 11
95 8 71 10 517 3 595 -17 172 -22 220 -25 225 -2 3 -6 30 -10 60 -3 30 -10 71
-15 90 -5 19 -12 51 -15 70 -13 75 -67 275 -106 392 -349 1038 -1164 1854
-2204 2206 -167 56 -419 119 -555 137 -19 3 -46 7 -60 10 -13 2 -54 7 -90 11
-36 3 -78 8 -95 11 -33 5 -531 13 -537 8z m537 -259 c56 -7 261 -38 330 -51
89 -17 286 -71 404 -111 639 -216 1198 -634 1603 -1199 71 -99 122 -181 195
-310 215 -385 352 -841 390 -1300 14 -168 8 -520 -12 -661 -20 -143 -41 -255
-67 -359 -16 -66 -31 -128 -33 -138 -8 -37 -88 -265 -122 -347 -96 -232 -288
-567 -417 -727 -254 -315 -477 -526 -766 -722 -63 -43 -148 -97 -189 -121 -84
-48 -346 -180 -359 -180 -5 0 -26 -9 -48 -19 -35 -17 -259 -96 -301 -106 -10
-3 -43 -12 -73 -20 -66 -19 -259 -61 -315 -69 -23 -4 -51 -8 -64 -11 -12 -2
-50 -7 -84 -11 -34 -3 -78 -8 -97 -10 -19 -3 -129 -6 -245 -8 -225 -4 -411 10
-600 44 -147 26 -136 24 -287 64 -744 196 -1411 671 -1847 1316 -268 397 -436
818 -515 1292 -13 79 -28 191 -33 248 -15 194 -9 516 13 680 6 45 25 169 30
195 2 11 7 34 10 50 24 137 96 379 161 545 43 109 155 344 201 420 12 19 29
49 38 65 37 67 178 267 261 370 113 141 337 366 478 478 435 349 923 573 1460
672 44 8 100 17 125 20 25 3 56 8 70 10 14 2 57 7 95 11 39 3 71 7 73 8 5 6
482 -2 537 -8z"/>
<path d="M3420 5615 c-101 -21 -164 -71 -208 -165 -72 -153 16 -357 171 -395
l27 -7 0 -402 0 -403 -609 0 c-466 0 -616 -3 -639 -12 -65 -27 -62 21 -62
-1049 l0 -969 23 -33 c13 -20 35 -37 53 -42 17 -4 625 -7 1352 -5 l1322 2 32
33 33 32 0 983 c0 929 -1 985 -18 1010 -10 16 -30 33 -45 39 -18 7 -240 10
-677 11 l-651 0 0 399 0 398 35 11 c163 54 248 230 185 384 -54 135 -187 208
-324 180z m167 -86 c49 -30 69 -53 95 -108 41 -88 17 -193 -59 -260 -94 -84
-227 -77 -315 15 -91 97 -78 246 29 337 60 51 180 59 250 16z"/>
<path d="M5002 3198 l0 -578 249 0 249 0 32 29 33 29 0 504 c1 276 -3 515 -8
530 -4 14 -17 34 -29 45 -18 16 -42 18 -273 19 l-253 1 0 -579z"/>
<path d="M1486 3751 c-14 -8 -30 -27 -36 -41 -7 -17 -10 -193 -8 -539 l3 -513
28 -24 29 -24 256 2 256 3 1 568 c0 313 -2 572 -5 576 -3 5 -116 8 -252 8
-205 0 -250 -3 -272 -16z"/>
</g>
</svg>
